Coordinates
version=1
nRows=4
nColumns=53
inDegrees=yes

Units are S.I. units (second, meters, Newtons, ...)
If the header above contains a line with 'inDegrees', this indicates whether rotational values are in degrees (yes) or radians (no).

endheader
time	pelvis_tilt	pelvis_list	pelvis_rotation	pelvis_tx	pelvis_ty	pelvis_tz	hip_flexion_r	hip_adduction_r	hip_rotation_r	knee_angle_r	knee_flexion_r_beta	ankle_angle_r	subtalar_angle_r	mtp_flexion_r	hip_flexion_l	hip_adduction_l	hip_int_rotation_l	knee_flexion_l	knee_flexion_l_beta	ankle_dorsiflexion_l	subtalar_angle_l	mtp_flexion_l	lumbar_extension	lumbar_bending	lumbar_rotation	thoracic_extension	thoracic_bending	thoracic_rotation	neck_extension	neck_bending	neck_rotation	head_extension	head_tilting	head_rotation	stnclv_protraction_r	stnclv_elevation_r	arm_flex_r	arm_add_r	arm_rot_r	elbow_flex_r	pro_sup_r	wrist_flex_r	wrist_dev_r	stnclv_protraction_l	stnclv_elevation_l	arm_flex_l	arm_add_l	arm_rot_l	elbow_flex_l	pro_sup_l	wrist_flex_l	wrist_dev_l
      2.95417000	     -2.44177098	      1.24244451	    -91.56106273	      1.18541044	      0.57695643	     -1.03127964	     95.30063355	    -22.82670505	     19.04808341	    126.82461306	      2.21350707	     28.61682432	     10.50884539	      0.00000000	     97.87994905	    -24.28533699	     24.04628811	    127.65453500	      2.22799194	     29.94729602	     18.11699614	      0.00000000	    -61.06141436	      0.17471873	      0.74665539	      8.03250437	     -1.26406541	      0.74665539	     18.29414751	      3.97275488	      0.35133022	     27.78333781	     -3.87027517	      0.35133022	    -43.72301250	     19.30549441	    117.97736802	    -26.10915202	    -23.54487335	     58.33578695	     87.97633426	      3.70490185	    -22.67305542	    -39.70886258	     18.03313138	    123.36325439	    -24.33030579	    -21.83121386	     64.12056934	     88.14788622	     14.85456525	    -15.54865176
      2.95833000	     -2.49095037	      1.15795800	    -91.55281629	      1.18534751	      0.57627196	     -1.03120949	     95.28987664	    -22.83420697	     19.04448840	    126.94355402	      2.21558298	     28.60976466	     10.54344743	      0.00000000	     97.93130828	    -24.30624083	     24.18378378	    127.74615358	      2.22959099	     29.95410604	     18.22623299	      0.00000000	    -61.09120837	      0.22564597	      0.77333038	      7.94774869	     -1.30726452	      0.77333038	     18.08397628	      3.97715816	      0.33480393	     27.96375429	     -3.87688934	      0.33480393	    -43.70609532	     19.39905500	    117.85135020	    -26.17267628	    -23.63973644	     58.45814109	     87.92886569	      3.84349455	    -22.69454021	    -39.79533545	     18.17443062	    123.21430562	    -24.28943225	    -22.02744891	     64.33067429	     88.14832811	     14.68646934	    -15.77197864
      2.96250000	     -2.47943534	      1.07790755	    -91.54348653	      1.18523834	      0.57571953	     -1.03119902	     95.29268324	    -22.84368656	     19.09470473	    127.02394045	      2.21698599	     28.63157700	     10.44786928	      0.00000000	     97.93058839	    -24.30246795	     24.22042706	    127.82790962	      2.23101790	     29.96436820	     18.13423280	      0.00000000	    -61.15833003	      0.18225395	      0.77177393	      7.86934966	     -1.25691933	      0.77177393	     17.99799219	      4.03672041	      0.33905481	     28.05265497	     -3.91944662	      0.33905481	    -43.75702535	     19.34976245	    117.95449563	    -26.08989493	    -23.58939526	     58.43903080	     87.95592040	      3.35470330	    -22.69967483	    -39.76531721	     18.08689896	    123.36090891	    -24.29635285	    -21.88567938	     64.21252614	     88.16719177	     14.66034927	    -16.05305303
      2.96667000	     -2.53995990	      0.85751188	    -91.48103324	      1.18536080	      0.57546675	     -1.03122636	     95.08384753	    -22.96527972	     19.07326005	    127.09605779	      2.21824467	     28.71248933	     10.62357652	      0.00000000	     97.78948938	    -24.27173419	     24.35108373	    127.89582126	      2.23220318	     30.08011182	     18.52278522	      0.00000000	    -61.51952913	      0.54119260	      0.79387947	      8.06168112	     -1.70634459	      0.79387947	     17.77331054	      4.21151217	      0.31906553	     28.07209801	     -3.91660489	      0.31906553	    -43.74998483	     19.51353483	    117.50597800	    -26.07087717	    -24.02033579	     58.71120388	     87.97904503	      4.06751207	    -22.67762746	    -39.86303956	     18.57730171	    123.04871483	    -24.38338363	    -22.38346307	     64.72829714	     88.16395136	     14.76212575	    -14.86181040
